<svg width="14" height="14" viewBox="0 0 14 14" fill="none" xmlns="http://www.w3.org/2000/svg">
<path d="M12.5379 0.0131836H2.71427C1.69927 0.0131836 0.87677 0.848808 0.87677 1.88043V11.9351L0.87852 11.9596L0.879395 11.9797L0.881145 12.0077L0.882895 12.0191C0.961645 12.9754 1.75177 13.7271 2.71339 13.7271H12.5388C12.8538 13.7271 13.1093 13.4681 13.1093 13.1478V0.592434C13.1098 0.516939 13.0955 0.442071 13.0672 0.372103C13.0388 0.302135 12.997 0.238438 12.944 0.184649C12.891 0.130861 12.828 0.0880334 12.7584 0.0586132C12.6889 0.029193 12.6143 0.0137559 12.5388 0.0131836H12.5379ZM5.13802 1.17168H6.94489V5.74968L6.33065 5.29468C6.23109 5.22068 6.1099 5.1816 5.98586 5.1835C5.86183 5.1854 5.74189 5.22817 5.64465 5.30518L5.13802 5.70593V1.17168ZM11.9674 12.5686H2.72564C2.54794 12.5655 2.37761 12.497 2.24719 12.3763C2.11676 12.2556 2.0354 12.091 2.01864 11.9141L2.01777 11.8974V11.8712L2.0169 11.8607C2.0169 11.4696 2.32927 11.1519 2.71339 11.1519H11.9674V12.5686ZM11.9674 9.99256H2.71427C2.46752 9.99256 2.23215 10.0424 2.0169 10.1326V1.88043C2.0169 1.48931 2.32927 1.17168 2.71427 1.17168H3.99702V6.88106C3.99702 7.06218 4.07577 7.23631 4.21752 7.34743C4.31724 7.42607 4.44053 7.46883 4.56752 7.46883C4.69451 7.46883 4.8178 7.42607 4.91752 7.34743L6.00602 6.48818L7.17852 7.35793C7.38765 7.51281 7.67727 7.50843 7.88377 7.33168C7.94783 7.27553 7.99898 7.20618 8.03372 7.1284C8.06846 7.05062 8.08596 6.96624 8.08502 6.88106V1.17256H11.9674V9.99256Z" fill="#31A863"/>
</svg>
