<svg width="13" height="14" viewBox="0 0 13 14" fill="none" xmlns="http://www.w3.org/2000/svg">
<path d="M12.003 10.5C11.9377 10.5 11.8731 10.4872 11.8128 10.4622C11.7525 10.4372 11.6977 10.4006 11.6516 10.3544C11.6054 10.3083 11.5688 10.2535 11.5438 10.1932C11.5189 10.1329 11.506 10.0683 11.506 10.003V3.4975C11.506 2.6975 10.843 1.9975 10.085 1.9975H3.9985C3.86622 1.9975 3.73936 1.94495 3.64583 1.85142C3.5523 1.75789 3.49975 1.63103 3.49975 1.49875C3.49975 1.36647 3.5523 1.23961 3.64583 1.14608C3.73936 1.05255 3.86622 1 3.9985 1H10.1315C11.458 1 12.5 2.1 12.5 3.5V10.003C12.5 10.1348 12.4476 10.2612 12.3544 10.3544C12.2612 10.4476 12.1348 10.5 12.003 10.5V10.5ZM9.075 13H2.425C1.665 13 1 12.335 1 11.575V4.925C1 4.165 1.665 3.5 2.425 3.5H9.075C9.835 3.5 10.5 4.165 10.5 4.925V11.575C10.5 12.335 9.835 13 9.075 13ZM2.477 4.506C2.192 4.506 2.002 4.696 2.002 4.981V11.533C2.002 11.818 2.192 12.008 2.477 12.008H9.0565C9.3415 12.008 9.5315 11.818 9.5315 11.533V4.981C9.5315 4.696 9.3415 4.506 9.0565 4.506H2.4765H2.477Z" fill="#6A7672" stroke="#6A7672" stroke-width="0.5"/>
</svg>
