<svg width="20" height="23" viewBox="0 0 20 23" fill="none" xmlns="http://www.w3.org/2000/svg">
<g filter="url(#filter0_d)">
<path d="M8.81497 1.82172C8.63097 2.42271 8.12996 3.50265 6.76745 4.93491C4.41693 7.40883 4.10543 11.3942 7.71696 13.3539C8.01346 13.5147 8.26096 13.4157 8.44696 13.217C9.06197 12.5614 9.32897 11.5994 9.24897 10.3321C9.22647 9.98282 9.37897 9.89193 9.68097 10.1309C10.5375 10.808 11.0965 11.8511 11.0965 12.9725C11.0965 13.3539 11.246 13.5556 11.5945 13.4866C13.8975 13.0307 16.704 9.65858 13.6795 4.72097C13.4985 4.46975 13.231 4.46975 13.2355 4.81492C13.2405 5.23873 13.193 5.66151 13.0935 6.07307C13.025 6.35901 12.7615 6.35493 12.6995 6.07307C12.3225 4.35792 11.2745 2.90013 9.55497 1.69713C9.09097 1.37289 8.92247 1.47246 8.81497 1.82223V1.82172Z" fill="url(#paint0_linear)"/>
</g>
<defs>
<filter id="filter0_d" x="0" y="0.5" width="20" height="22" filterUnits="userSpaceOnUse" color-interpolation-filters="sRGB">
<feFlood flood-opacity="0" result="BackgroundImageFix"/>
<feColorMatrix in="SourceAlpha" type="matrix" values="0 0 0 0 0 0 0 0 0 0 0 0 0 0 0 0 0 0 127 0"/>
<feOffset dy="4"/>
<feGaussianBlur stdDeviation="2.5"/>
<feColorMatrix type="matrix" values="0 0 0 0 0.870833 0 0 0 0 0.330715 0 0 0 0 0.0290278 0 0 0 0.5 0"/>
<feBlend mode="normal" in2="BackgroundImageFix" result="effect1_dropShadow"/>
<feBlend mode="normal" in="SourceGraphic" in2="effect1_dropShadow" result="shape"/>
</filter>
<linearGradient id="paint0_linear" x1="8.5" y1="13.5" x2="8" y2="-0.5" gradientUnits="userSpaceOnUse">
<stop stop-color="#FFBC96"/>
<stop offset="0.956763" stop-color="#FFF6F1"/>
</linearGradient>
</defs>
</svg>
