<svg width="24" height="12" viewBox="0 0 24 12" fill="none" xmlns="http://www.w3.org/2000/svg">
<path d="M0 5C0 2.23858 2.23858 0 5 0H19C21.7614 0 24 2.23858 24 5V7C24 9.76142 21.7614 12 19 12H2C0.89543 12 0 11.1046 0 10V5Z" fill="#F18D30"/>
<path d="M3.5 3.11321V8.88679H4.47418V6.33154H7.48831V8.88679H8.46249V3.11321H7.48831V5.52291H4.47418V3.11321H3.5Z" fill="white"/>
<path d="M12.2703 3C11.3544 3 10.6384 3.28302 10.1222 3.86523C9.62258 4.41509 9.38111 5.12668 9.38111 6.00809C9.38111 6.8814 9.62258 7.59299 10.1222 8.14286C10.6384 8.70889 11.3544 9 12.2703 9C13.1779 9 13.894 8.71698 14.4185 8.15094C14.9181 7.60916 15.1679 6.89757 15.1679 6.00809C15.1679 5.1186 14.9181 4.39892 14.4185 3.85714C13.894 3.28302 13.1779 3 12.2703 3ZM12.2703 3.83288C12.8865 3.83288 13.3611 4.01887 13.6941 4.40701C14.0189 4.79515 14.1854 5.32884 14.1854 6.00809C14.1854 6.68733 14.0189 7.21294 13.6941 7.59299C13.3611 7.97305 12.8865 8.16712 12.2703 8.16712C11.6542 8.16712 11.1713 7.96496 10.8382 7.56873C10.5135 7.18059 10.3553 6.66307 10.3553 6.00809C10.3553 5.34501 10.5135 4.82749 10.8382 4.43935C11.1796 4.03504 11.6542 3.83288 12.2703 3.83288Z" fill="white"/>
<path d="M15.6291 3.11321V3.92183H17.5775V8.88679H18.5516V3.92183H20.5V3.11321H15.6291Z" fill="white"/>
</svg>
