<svg width="14" height="18" viewBox="0 0 14 18" fill="none" xmlns="http://www.w3.org/2000/svg">
<path d="M11.7081 9.345C11.6888 7.13267 13.4466 6.05624 13.5265 6.0059C12.5313 4.49379 10.989 4.28692 10.4468 4.27045C9.15174 4.12857 7.89483 5.07868 7.23499 5.07868C6.56198 5.07868 5.5461 4.28418 4.45075 4.30752C3.04151 4.3304 1.72314 5.18028 1.00008 6.50109C-0.492574 9.19443 0.620772 13.1518 2.05065 15.3285C2.76624 16.3948 3.60125 17.5857 4.69528 17.5436C5.76473 17.4978 6.16467 16.8323 7.45582 16.8323C8.73555 16.8323 9.11091 17.5436 10.226 17.517C11.3749 17.4978 12.098 16.4461 12.7881 15.3706C13.6143 14.1486 13.9462 12.945 13.9594 12.8832C13.9331 12.874 11.7292 11.9972 11.7073 9.34546L11.7081 9.345ZM9.60085 2.83888C10.176 2.08832 10.5702 1.06773 10.4613 0.0311279C9.62807 0.0700292 8.58672 0.632038 7.98615 1.36613C7.45494 2.01235 6.9808 3.07229 7.10373 4.06908C8.03883 4.1423 9.00028 3.57709 9.60085 2.83797V2.83888Z" fill="white"/>
</svg>
