<svg width="18" height="18" viewBox="0 0 18 18" fill="none" xmlns="http://www.w3.org/2000/svg">
<path d="M8.74336 16.1121C7.80645 16.1121 6.89941 15.9293 6.04512 15.5689C5.2207 15.2209 4.47891 14.7217 3.84434 14.0871C3.20977 13.4525 2.71055 12.7107 2.3625 11.8863C2.00215 11.032 1.81934 10.125 1.81934 9.18806C1.81934 8.25115 2.00215 7.34412 2.3625 6.48982C2.71055 5.66541 3.20977 4.92361 3.84434 4.28904C4.48066 3.65271 5.2207 3.15525 6.04512 2.8072C6.89941 2.44685 7.80645 2.26404 8.74336 2.26404C9.68027 2.26404 10.5873 2.44685 11.4416 2.8072C12.266 3.15525 13.0078 3.65447 13.6424 4.28904C14.2787 4.92537 14.7762 5.66541 15.1242 6.48982C15.4846 7.34412 15.6674 8.25115 15.6674 9.18806C15.6674 10.125 15.4846 11.032 15.1242 11.8863C14.7762 12.7107 14.277 13.4525 13.6424 14.0871C13.0078 14.7217 12.266 15.2209 11.4416 15.5689C10.5873 15.9293 9.68027 16.1121 8.74336 16.1121ZM4.36992 13.347C4.91309 13.9131 5.5459 14.3631 6.25605 14.6847C7.04004 15.0398 7.87676 15.2209 8.74336 15.2209C9.60293 15.2209 10.4396 15.0381 11.2289 14.6777C11.9232 14.3595 12.5719 13.9025 13.1133 13.3488C12.5719 12.7845 11.9391 12.3345 11.2289 12.0146C10.4449 11.6595 9.6082 11.4785 8.7416 11.4785C7.07871 11.4767 5.49316 12.157 4.36992 13.347ZM10.6312 10.8246C11.7914 11.1603 12.8408 11.7826 13.6934 12.6439C14.4035 11.5963 14.7762 10.4045 14.7762 9.18455C14.7762 7.56912 14.1469 6.05212 13.0061 4.91306C11.867 3.77576 10.3518 3.14998 8.74336 3.14998C7.93125 3.14998 7.14199 3.30994 6.39844 3.62458C5.67949 3.92869 5.03437 4.36462 4.47891 4.92009C3.92344 5.47556 3.4875 6.12068 3.1834 6.83962C2.86875 7.58318 2.70879 8.37244 2.70879 9.18455C2.70879 10.4027 3.08145 11.5945 3.78984 12.6422C4.64238 11.7633 5.6918 11.1392 6.85371 10.8176C6.53379 10.5715 6.26309 10.2656 6.05742 9.92107C5.77087 9.43927 5.61966 8.88906 5.61973 8.32849C5.61973 7.4988 5.94492 6.71482 6.5373 6.12244C7.12969 5.53005 7.91191 5.20486 8.74336 5.20486C9.57305 5.20486 10.357 5.53005 10.9494 6.12244C11.5418 6.71482 11.867 7.49705 11.867 8.32849C11.867 9.33044 11.4117 10.2357 10.6312 10.8246ZM8.74336 6.09958C7.51289 6.09958 6.51094 7.10154 6.51094 8.33201C6.51094 9.56248 7.51289 10.5644 8.74336 10.5644C9.97383 10.5644 10.9758 9.56248 10.9758 8.33201C10.9758 7.10154 9.97383 6.09958 8.74336 6.09958Z" fill="#32A964" stroke="#32A964" stroke-width="0.3"/>
</svg>
