<svg width="24" height="24" viewBox="0 0 24 24" fill="none" xmlns="http://www.w3.org/2000/svg">
<rect width="24" height="24" fill="#C4C4C4" fill-opacity="0.01"/>
<path d="M5.14282 6.28571C5.14282 5.18114 6.03825 4.28571 7.14282 4.28571H16.8571C17.9617 4.28571 18.8571 5.18114 18.8571 6.28571V17.7143C18.8571 18.8188 17.9617 19.7143 16.8571 19.7143H7.14282C6.03825 19.7143 5.14282 18.8188 5.14282 17.7143V6.28571Z" fill="white" stroke="#01943F"/>
<path d="M5.14282 18.4286C5.14282 17.7185 5.71846 17.1429 6.42854 17.1429H17.5714C18.2815 17.1429 18.8571 17.7185 18.8571 18.4286C18.8571 19.1387 18.2815 19.7143 17.5714 19.7143H6.42854C5.71846 19.7143 5.14282 19.1387 5.14282 18.4286Z" fill="white" stroke="#01943F"/>
<path d="M5.14282 6.2857C5.14282 5.18113 6.03825 4.28571 7.14282 4.28571H16.8571C17.9617 4.28571 18.8571 5.18114 18.8571 6.28571V16.8571C18.8571 17.9617 17.9617 18.8571 16.8571 18.8571H7.14282C6.03825 18.8571 5.14282 17.9617 5.14282 16.8571V6.2857Z" fill="url(#paint0_linear)"/>
<path d="M7.71436 11.9496H9.30706C9.39559 11.9496 9.47358 11.8914 9.49878 11.8065L10.4677 8.54453C10.5281 8.3412 10.8219 8.35938 10.8567 8.5686L11.842 14.4801C11.8776 14.694 12.1807 14.7061 12.2333 14.4957L13.1608 10.7858C13.205 10.6087 13.444 10.5787 13.5308 10.7393L14.1277 11.8446C14.1626 11.9093 14.2302 11.9496 14.3037 11.9496H15.4286" stroke="#029440" stroke-linecap="round"/>
<defs>
<linearGradient id="paint0_linear" x1="12" y1="18.4286" x2="12" y2="4.28571" gradientUnits="userSpaceOnUse">
<stop stop-color="#01943F" stop-opacity="0"/>
<stop offset="1" stop-color="#01943F" stop-opacity="0.24"/>
</linearGradient>
</defs>
</svg>
