<svg width="16" height="16" viewBox="0 0 16 16" fill="none" xmlns="http://www.w3.org/2000/svg">
<path d="M5.06441 8.00077L6.3627 6.70248C6.57695 6.48023 6.57375 6.13168 6.3579 5.91743C6.14205 5.70158 5.7935 5.69838 5.57445 5.91103L3.87964 7.60584C3.66219 7.82329 3.66219 8.17664 3.87964 8.39569L5.57285 10.0889C5.7919 10.3064 6.14365 10.3064 6.3627 10.0889C6.58175 9.86986 6.58175 9.5165 6.3627 9.29906L5.06441 8.00077ZM8.83137 5.094C8.69227 5.05243 8.53718 5.06842 8.40607 5.14037C8.27496 5.21232 8.17903 5.33544 8.14065 5.47933L6.7864 10.2184C6.74483 10.3591 6.76242 10.5126 6.83437 10.6421C6.90632 10.7716 7.02624 10.8676 7.16854 10.9075C7.31084 10.9491 7.46433 10.9315 7.59384 10.8596C7.72335 10.7876 7.81928 10.6677 7.85925 10.5254L9.2135 5.78312C9.25507 5.64242 9.23749 5.48893 9.16554 5.35942C9.09359 5.22991 8.97367 5.13398 8.83137 5.094ZM10.4271 5.91263C10.2048 5.69838 9.85625 5.70158 9.642 5.91743C9.42615 6.13328 9.42296 6.48183 9.63561 6.70088L10.9371 8.00237L9.63881 9.30066C9.53328 9.40458 9.47412 9.54688 9.47412 9.69558C9.47412 9.84428 9.53328 9.98658 9.63881 10.0921C9.85785 10.3095 10.2096 10.3095 10.4287 10.0921L12.1203 8.39569C12.3377 8.17824 12.3377 7.82489 12.1203 7.60584L10.4271 5.91263Z" fill="#32A964"/>
<path d="M4.26964 1.25557H11.73C13.3924 1.25557 14.7451 2.60664 14.7451 4.27062V11.731C14.7451 13.3934 13.3924 14.7461 11.73 14.7461H4.26964C2.60724 14.7461 1.25459 13.3934 1.25459 11.731V4.27062C1.25459 2.60822 2.60724 1.25557 4.26964 1.25557ZM11.7684 13.5478C12.7489 13.5478 13.5468 12.7499 13.5468 11.7694V4.23225C13.5468 3.2517 12.7489 2.45386 11.7684 2.45386H4.23127C3.25072 2.45386 2.45288 3.2517 2.45288 4.23225V11.7694C2.45288 12.7499 3.25072 13.5478 4.23127 13.5478H11.7684Z" fill="#32A964" stroke="#F5FDF8" stroke-width="0.1"/>
</svg>
