<svg width="24" height="24" viewBox="0 0 24 24" fill="none" xmlns="http://www.w3.org/2000/svg">
<rect width="24" height="24" fill="#C4C4C4" fill-opacity="0.01"/>
<path d="M15.5703 6.71425C15.5703 5.29409 16.7216 4.14282 18.1417 4.14282C19.5619 4.14282 20.7132 5.29409 20.7132 6.71425C20.7132 8.13441 19.5619 9.28568 18.1417 9.28568C16.7216 9.28568 15.5703 8.13441 15.5703 6.71425Z" fill="url(#paint0_linear)" stroke="#01943F"/>
<path d="M5 9C5 6.79086 6.79086 5 9 5H15C17.2091 5 19 6.79086 19 9V15C19 17.2091 17.2091 19 15 19H9C6.79086 19 5 17.2091 5 15V9Z" fill="url(#paint1_linear)" stroke="#01943F"/>
<path d="M9 12H15" stroke="#01943F" stroke-width="1.5" stroke-linecap="round"/>
<defs>
<linearGradient id="paint0_linear" x1="18.1417" y1="4.14282" x2="18.1417" y2="9.28568" gradientUnits="userSpaceOnUse">
<stop stop-color="#DCF0E4"/>
<stop offset="1" stop-color="white"/>
</linearGradient>
<linearGradient id="paint1_linear" x1="12" y1="5" x2="12" y2="19" gradientUnits="userSpaceOnUse">
<stop stop-color="#DCF0E4"/>
<stop offset="1" stop-color="white" stop-opacity="0"/>
</linearGradient>
</defs>
</svg>
