<svg width="16" height="18" viewBox="0 0 16 18" fill="none" xmlns="http://www.w3.org/2000/svg">
<g clip-path="url(#clip0)">
<path d="M14.6424 5.57871C14.027 5.57871 13.5235 6.08164 13.5235 6.69642V11.1674C13.5235 11.7822 14.027 12.2851 14.6424 12.2851C15.2578 12.2851 15.7613 11.7821 15.7613 11.1674V6.69642C15.7613 6.08232 15.2571 5.57871 14.6424 5.57871ZM1.21578 5.57871C0.600353 5.57871 0.0969238 6.08164 0.0969238 6.69642V11.1674C0.0969238 11.7822 0.600374 12.2851 1.21578 12.2851C1.83119 12.2851 2.33464 11.7821 2.33464 11.1674V6.69642C2.33464 6.08232 1.83119 5.57871 1.21578 5.57871ZM2.89445 12.8436C2.89445 13.7699 3.64586 14.5199 4.57243 14.5199H5.13153V16.7553C5.13153 17.3701 5.63498 17.873 6.25039 17.873C6.86582 17.873 7.36925 17.3701 7.36925 16.7553V14.5199H8.48811V16.7553C8.48811 17.3701 8.99156 17.873 9.60697 17.873C10.2224 17.873 10.7258 17.3701 10.7258 16.7553V14.5199H11.2849C12.2122 14.5199 12.9629 13.7692 12.9629 12.8436V6.69644H2.89428V12.8436H2.89445ZM10.7109 0.195199C10.7466 0.127289 10.7205 0.0421732 10.6518 0.0071828C10.5838 -0.0285116 10.4986 -0.00240333 10.4636 0.066211L9.74442 1.44535C9.18049 1.22783 8.56852 1.10845 7.92907 1.10845C7.28962 1.10845 6.67761 1.22783 6.11441 1.44603L5.39595 0.065507C5.36021 -0.00240332 5.27572 -0.0291948 5.20774 0.00647885C5.13975 0.0421732 5.11294 0.126585 5.14865 0.194495L5.85682 1.55376C4.27226 2.27009 3.12521 4.24088 2.92668 6.03792H12.9349C12.7336 4.2402 11.5865 2.27011 10.0027 1.55376L10.7109 0.195199ZM5.69133 4.71279C5.24351 4.71279 4.88014 4.34982 4.88014 3.90244C4.88014 3.45506 5.24349 3.09209 5.69133 3.09209C6.13915 3.09209 6.50252 3.45506 6.50252 3.90244C6.50252 4.34982 6.13917 4.71279 5.69133 4.71279ZM10.1669 4.71279C9.71903 4.71279 9.35567 4.34982 9.35567 3.90244C9.35567 3.45506 9.71901 3.09209 10.1669 3.09209C10.6147 3.09209 10.978 3.45506 10.978 3.90244C10.978 4.34982 10.6147 4.71279 10.1669 4.71279Z" fill="white"/>
</g>
<defs>
<clipPath id="clip0">
<rect width="16" height="17.8824" fill="white"/>
</clipPath>
</defs>
</svg>
