<svg width="32" height="32" viewBox="0 0 32 32" fill="none" xmlns="http://www.w3.org/2000/svg">
<ellipse cx="16" cy="16" rx="16" ry="16" fill="#F29B18"/>
<path fill-rule="evenodd" clip-rule="evenodd" d="M19.5434 8.15976C19.5562 8.15644 19.5689 8.15312 19.5774 8.15312C19.8817 8.08277 20.9804 7.86249 22.0285 8.12629C23.9388 8.58418 26.5425 10.2433 25.3759 14.5865H25.359C25.2932 15.204 25.0184 15.2036 24.707 15.2032C24.6989 15.2032 24.6909 15.2032 24.6828 15.2032C24.2769 15.2032 23.9557 14.9221 23.9557 14.5173C23.9557 14.1476 24.108 13.7955 24.108 13.7955C24.1109 13.782 24.116 13.7628 24.1225 13.7381C24.1928 13.4742 24.4293 12.5851 23.8881 11.3133C22.7894 9.412 20.5916 9.37716 20.338 9.48267C20.0674 9.58849 19.6787 9.64155 19.6787 9.64155C19.2899 9.64155 18.9687 9.3074 18.9687 8.90259C18.9687 8.56812 19.1883 8.27007 19.4926 8.18181C19.4926 8.18181 19.4926 8.16638 19.5095 8.16638C19.518 8.16638 19.5307 8.16307 19.5434 8.15976ZM22.2625 14.5779C22.4989 14.5779 22.7019 14.3842 22.7357 14.1377C22.7357 14.1289 22.7399 14.1201 22.7441 14.1113C22.7484 14.1025 22.7526 14.0937 22.7526 14.0849C23.1076 10.6527 20.0479 11.2509 20.0479 11.2509C19.7773 11.2509 19.5575 11.4798 19.5575 11.7615C19.5575 12.0432 19.7774 12.2721 20.0479 12.2721C22.2453 11.7615 21.7552 14.0674 21.7552 14.0674C21.7551 14.349 21.975 14.5779 22.2625 14.5779ZM20.4999 16.5589C19.7899 16.4182 20.128 16.0133 20.128 16.0133C20.128 16.0133 20.8211 14.8161 19.9926 13.9534C18.9614 12.8796 16.4594 14.0944 16.4594 14.0944C15.6581 14.3477 15.7167 14.0712 15.8355 13.5107C15.8571 13.409 15.8806 13.2979 15.9014 13.1789C15.9014 12.281 15.5971 10.7496 13.0443 11.6651C10.5085 12.5627 8.32761 15.7493 8.32761 15.7493C6.80606 17.8617 7.009 19.4813 7.009 19.4813C7.38086 23.0903 11.0664 24.0761 13.9234 24.305C16.9328 24.5516 20.9899 23.2313 22.224 20.5023C23.4583 17.7737 21.2098 16.6999 20.4999 16.5589ZM14.1442 23.3015C11.1517 23.4422 8.73438 21.8758 8.73438 19.7984C8.73438 17.7213 11.1517 16.0666 14.1442 15.9257C17.1363 15.785 19.5539 17.0524 19.5539 19.1295C19.5539 21.2069 17.1363 23.1605 14.1442 23.3015ZM11.9923 20.9305C11.9923 20.9305 11.6542 17.9901 14.6636 17.6204C17.6726 17.2683 18.1968 20.2614 17.2839 21.4937C16.371 22.7087 14.5623 23.3073 12.804 22.3214C11.9754 21.8458 11.9923 20.9305 11.9923 20.9305ZM12.8864 20.9843C12.8864 21.4772 13.343 21.8118 13.9006 21.7415C14.4586 21.6711 14.9152 21.2309 14.9152 20.7377C14.9152 20.2447 14.4924 19.8571 13.85 19.9278C13.2923 19.9806 12.8864 20.4911 12.8864 20.9843ZM15.6776 20.1729C15.4746 20.3138 15.255 20.2963 15.1534 20.1202C15.0352 19.9444 15.0859 19.6629 15.2719 19.522C15.4915 19.3462 15.7283 19.3989 15.8299 19.575C15.9312 19.7507 15.8468 20.0147 15.6776 20.1729Z" fill="white"/>
</svg>
